<?xml version="1.0" encoding="UTF-8"?><svg xmlns="http://www.w3.org/2000/svg" xmlns:xlink="http://www.w3.org/1999/xlink" fill-opacity="1" color-rendering="auto" color-interpolation="auto" stroke="black" text-rendering="auto" stroke-linecap="square" width="173" stroke-miterlimit="10" stroke-opacity="1" shape-rendering="auto" fill="black" stroke-dasharray="none" font-weight="normal" stroke-width="1" height="264" font-family="'Dialog'" font-style="normal" stroke-linejoin="miter" font-size="12" stroke-dashoffset="0" image-rendering="auto">
  <!--Generated by ySVG-->
  <defs id="genericDefs"/>
  <g>
    <defs id="defs1">
      <clipPath clipPathUnits="userSpaceOnUse" id="clipPath1">
        <path d="M0 0 L173 0 L173 264 L0 264 L0 0 Z"/>
      </clipPath>
      <clipPath clipPathUnits="userSpaceOnUse" id="clipPath2">
        <path d="M556 278 L729 278 L729 542 L556 542 L556 278 Z"/>
      </clipPath>
      <clipPath clipPathUnits="userSpaceOnUse" id="clipPath3">
        <path d="M-15.7229 -13.5059 L157.2771 -13.5059 L157.2771 250.4941 L-15.7229 250.4941 L-15.7229 -13.5059 Z"/>
      </clipPath>
      <clipPath clipPathUnits="userSpaceOnUse" id="clipPath4">
        <path d="M-100.7229 -173.5059 L72.2771 -173.5059 L72.2771 90.4941 L-100.7229 90.4941 L-100.7229 -173.5059 Z"/>
      </clipPath>
    </defs>
    <g fill="white" transform="translate(-556,-278)" stroke="white">
      <rect x="556" width="173" height="264" y="278" clip-path="url(#clipPath2)" stroke="none"/>
    </g>
    <g transform="matrix(1,0,0,1,15.7229,13.5059)">
      <g clip-path="url(#clipPath3)">
        <svg xml:space="preserve" opacity="1" margin-top="0" indent="0" writing-mode="lr-tb" stop-color="rgb(0, 0, 0)" shape-rendering="auto" glyph-orientation-horizontal="0deg" color-profile="auto" lighting-color="rgb(255, 255, 255)" color="rgb(0, 0, 0)" xml:id="svg1.Ebene_1" font-weight="400" alignment-baseline="auto" font-style="normal" version="1.1" color-interpolation-filters="linearrgb" text-anchor="start" stroke-linecap="butt" color-interpolation="srgb" font-variant="normal" margin-left="0" solid-color="rgb(0, 0, 0)" word-spacing="normal" fill-opacity="1" text-rendering="auto" clip-path="none" text-decoration="none" letter-spacing="normal" viewBox="0 0 57 65" glyph-orientation-vertical="auto" margin-right="0" display="inline" font-size-adjust="none" margin-bottom="0" overflow="visible" fill="rgb(0, 0, 0)" font-stretch="normal" stroke-dasharray="none" id="svg1.Ebene_1" stroke-miterlimit="4" stop-opacity="1" color-rendering="auto" font-size="12" pointer-events="visiblepainted" mask="none" direction="ltr" baseline-shift="baseline" enable-background="new 0 0 57 65" fill-rule="nonzero" image-rendering="auto" solid-opacity="1" stroke-dashoffset="0" width="57px" marker-end="none" clip="auto" cursor="auto" stroke="none" filter="none" visibility="visible" kerning="auto" stroke-width="1" font-family="&quot;Arial&quot;,&quot;Helvetica&quot;,sans-serif" flood-opacity="1" clip-rule="nonzero" src="none" height="65px" text-align="inherit" line-height="normal" unicode-bidi="normal" stroke-linejoin="miter" stroke-opacity="1" flood-color="rgb(0, 0, 0)" dominant-baseline="auto" marker-start="none" x="0px" marker-mid="none" y="0px">
<g>
	
		<linearGradient gradientTransform="matrix(1 0 0 1 0.1602 -1546.3828)" x1="26.5" x2="27.741" gradientUnits="userSpaceOnUse" y1="1570.3457" y2="1600.1431" id="svg1.SVGID_1_" xml:id="svg1.SVGID_1_">
		<stop offset="0.2711" style="stop-color:#FFAB4F"/>
		<stop offset="1" style="stop-color:#FFD28F"/>
	</linearGradient>
	<path fill="url(#svg1.SVGID_1_)" d="M49.529,51.225c-4.396-4.396-10.951-5.884-12.063-6.109   V37.8H19.278c0,0,0.038,6.903,0,6.868c0,0-6.874,0.997-12.308,6.432C1.378,56.691,0.5,62.77,0.5,62.77   c0,1.938,1.575,3.492,3.523,3.492h48.51c1.947,0,3.521-1.558,3.521-3.492C56.055,62.768,54.211,55.906,49.529,51.225z" stroke-miterlimit="10" stroke="#ED9135"/>
	
		<radialGradient gradientTransform="matrix(1 0 0 1 0.1602 -1546.3828)" gradientUnits="userSpaceOnUse" r="23.4243" cx="27.7427" cy="1572.1094" id="svg1.face_x5F_white_1_" fx="23.1732" fy="1569.6195" xml:id="svg1.face_x5F_white_1_">
		<stop offset="0" style="stop-color:#FFD28F"/>
		<stop offset="1" style="stop-color:#FFAB4F"/>
	</radialGradient>
	<path fill="url(#svg1.face_x5F_white_1_)" id="svg1.face_x5F_white_3_" d="M43.676,23.357   c0.086,10.2-6.738,18.52-15.247,18.586c-8.502,0.068-15.466-8.146-15.552-18.344C12.794,13.4,19.618,5.079,28.123,5.012   C36.627,4.945,43.59,13.158,43.676,23.357z" stroke-miterlimit="10" xml:id="svg1.face_x5F_white_3_" stroke="#ED9135"/>
	
		<linearGradient gradientTransform="matrix(0.275 0 0 -0.2733 -977.2951 -1806.3545)" x1="3646.5117" x2="3670.1414" gradientUnits="userSpaceOnUse" y1="-6639.5884" y2="-6733.0391" id="svg1.face_highlight_1_" xml:id="svg1.face_highlight_1_">
		<stop offset="0" style="stop-color:#FFFFFF;stop-opacity:0.24"/>
		<stop offset="1" style="stop-color:#FFFFFF;stop-opacity:0.16"/>
	</linearGradient>
	<path fill="url(#svg1.face_highlight_1_)" d="M27.958,6.333c-6.035,0.047-10.747,4.493-12.787,10.386   c-0.664,1.919-0.294,4.043,0.98,5.629c2.73,3.398,5.729,6.283,9.461,8.088c3.137,1.518,7.535,2.385,11.893,1.247   c2.274-0.592,3.988-2.459,4.375-4.766c0.183-1.094,0.293-2.289,0.283-3.553C42.083,13.952,36.271,6.268,27.958,6.333z" id="svg1.face_highlight_3_" xml:id="svg1.face_highlight_3_"/>
	<path stroke-linecap="round" fill="#CC9869" stroke-linejoin="round" d="M20.278,13.25   c3.417,4.333,9.333,6.917,9.333,6.917l-1.417-3.5c0,0,7.094,4.691,8.083,4.333c0.968-0.2-1.082-3.807-1.082-3.807   s3.138,1.795,4.854,3.969c1.803,2.28,4.285,3.504,4.285,3.504S47.027,2.719,27.289,2.744C8.278,2.709,12.058,27.678,12.058,27.678   L14.695,17c0,0,0.914,5.757,1.399,4.875C17.861,15.211,18.861,11.5,20.278,13.25z" id="svg1.Hair_Young_Brown_1_" stroke="#99724F" xml:id="svg1.Hair_Young_Brown_1_"/>
	
		<radialGradient gradientTransform="matrix(1 0 0 1 0.1602 -1546.3828)" gradientUnits="userSpaceOnUse" r="32.4004" cx="15.1191" id="svg1.collar_x5F_body_2_" cy="1603.5518" xml:id="svg1.collar_x5F_body_2_">
		<stop offset="0" style="stop-color:#B0E8FF"/>
		<stop offset="1" style="stop-color:#74AEEE"/>
	</radialGradient>
	<path fill="url(#svg1.collar_x5F_body_2_)" d="M0.5,62.768c0,1.938,1.575,3.494,3.523,3.494   h48.51c1.947,0,3.521-1.559,3.521-3.494c0,0-1.844-6.861-6.525-11.543c-4.815-4.813-11.244-6.146-11.244-6.146   c-1.771,1.655-5.61,2.802-10.063,2.802c-4.453,0-8.292-1.146-10.063-2.802c0,0-5.755,0.586-11.189,6.021   C1.378,56.689,0.5,62.768,0.5,62.768z" id="svg1.collar_x5F_body_1_" xml:id="svg1.collar_x5F_body_1_" stroke="#5491CF"/>
	
		<radialGradient gradientTransform="matrix(1 0 0 1 0.1602 -1546.3828)" gradientUnits="userSpaceOnUse" r="9.2831" cx="31.46" id="svg1.collar_x5F_r_2_" cy="1593.6777" xml:id="svg1.collar_x5F_r_2_">
		<stop offset="0" style="stop-color:#80CCFF"/>
		<stop offset="1" style="stop-color:#74AEEE"/>
	</radialGradient>
	<path fill="url(#svg1.collar_x5F_r_2_)" d="M38.159,41.381c0,0-0.574,2.369-3.013,4.441   c-2.108,1.795-5.783,2.072-5.783,2.072l3.974,6.217c0,0,2.957-1.637,5.009-3.848c1.922-2.072,1.37-5.479,1.37-5.479L38.159,41.381z   " id="svg1.collar_x5F_r_1_" xml:id="svg1.collar_x5F_r_1_" stroke="#5491CF"/>
	
		<radialGradient gradientTransform="matrix(1 0 0 1 0.1602 -1546.3828)" gradientUnits="userSpaceOnUse" r="9.2837" cx="19.0977" id="svg1.collar_x5F_l_2_" cy="1593.7188" xml:id="svg1.collar_x5F_l_2_">
		<stop offset="0" style="stop-color:#80CCFF"/>
		<stop offset="1" style="stop-color:#74AEEE"/>
	</radialGradient>
	<path fill="url(#svg1.collar_x5F_l_2_)" d="M18.63,41.422c0,0,0.576,2.369,3.012,4.441   c2.109,1.793,5.785,2.072,5.785,2.072l-3.974,6.217c0,0-2.957-1.637-5.007-3.85c-1.922-2.072-1.37-5.48-1.37-5.48L18.63,41.422z" id="svg1.collar_x5F_l_1_" xml:id="svg1.collar_x5F_l_1_" stroke="#5491CF"/>
	
		<linearGradient gradientTransform="matrix(0.9852 0 0 -0.9852 -18.8086 -1488.5884)" x1="79.9941" x2="15.6017" gradientUnits="userSpaceOnUse" y1="-1567.4565" y2="-1567.4565" id="svg1.body_1_" xml:id="svg1.body_1_">
		<stop offset="0" style="stop-color:#49AD33"/>
		<stop offset="1" style="stop-color:#C2DA92"/>
	</linearGradient>
	<path fill="url(#svg1.body_1_)" d="M0.5,62.768c0,1.938,1.575,3.494,3.523,3.494h48.51   c1.947,0,3.521-1.559,3.521-3.494c0,0-1.844-6.861-6.525-11.543c-4.815-4.813-11.244-6.146-11.244-6.146   c-1.771,1.655-5.61,2.802-10.063,2.802c-4.453,0-8.292-1.146-10.063-2.802c0,0-5.755,0.586-11.189,6.021   C1.378,56.689,0.5,62.768,0.5,62.768z" id="svg1.body_9_" xml:id="svg1.body_9_" stroke="#008D33"/>
	
		<linearGradient gradientTransform="matrix(1 0 0 1 0.1602 -1546.3828)" x1="41.248" x2="15.2274" gradientUnits="userSpaceOnUse" y1="1593.0166" y2="1593.0166" id="svg1.turtleneck_1_" xml:id="svg1.turtleneck_1_">
		<stop offset="0" style="stop-color:#49AD33"/>
		<stop offset="1" style="stop-color:#C2DA92"/>
	</linearGradient>
	<path fill="url(#svg1.turtleneck_1_)" d="M39.715,44.786l-1.557-3.405c0,0-0.574,2.369-3.012,4.441   c-2.109,1.795-6.785,2.072-6.785,2.072s-4.753-0.356-6.722-2.031c-2.436-2.072-3.012-4.441-3.012-4.441l-1.555,3.404   c0,0-0.552,1.404,1.37,3.479c1.025,1.105,5.203,3.611,9.682,3.582c4.479-0.029,9.264-2.594,10.218-3.623   C40.266,46.191,39.715,44.786,39.715,44.786z" id="svg1.turtleneck_6_" xml:id="svg1.turtleneck_6_" stroke="#008D33"/>
	<path fill="#CC9869" d="M36.118,33.275   c-0.614,0.828-2.054,1.397-3.662,1.344c-1.399-0.047-2.694-0.286-3.429-0.787c-0.183-0.125-0.499-0.598-0.604-0.604   c-0.136-0.004-0.458,0.476-0.649,0.604c-1.382,0.932-4.73,1.074-6.257,0.139c-0.427-0.262-0.919-0.615-1.066-1.113   c-0.317-1.076,0.336,0.16,1.715-0.092c1.615-0.295,3.577-4.193,5.887-2.596c0.118,0.082,0.274,0.324,0.325,0.325   c0.099,0.002,0.64-0.503,0.788-0.556c2.393-0.859,3.818,2.568,5.377,2.828C35.346,32.899,36.844,32.295,36.118,33.275z" stroke-width="0.9271" stroke="#99724F" stroke-linecap="round" stroke-linejoin="round"/>
</g>
</svg>
      </g>
    </g>
    <g transform="matrix(1,0,0,1,100.7229,173.5059)">
      <g clip-path="url(#clipPath4)">
        <svg xml:space="preserve" opacity="1" margin-top="0" indent="0" writing-mode="lr-tb" stop-color="rgb(0, 0, 0)" shape-rendering="auto" glyph-orientation-horizontal="0deg" color-profile="auto" lighting-color="rgb(255, 255, 255)" color="rgb(0, 0, 0)" xml:id="svg2.Ebene_1" font-weight="400" alignment-baseline="auto" font-style="normal" version="1.1" color-interpolation-filters="linearrgb" text-anchor="start" stroke-linecap="butt" color-interpolation="srgb" font-variant="normal" margin-left="0" solid-color="rgb(0, 0, 0)" word-spacing="normal" fill-opacity="1" text-rendering="auto" clip-path="none" text-decoration="none" letter-spacing="normal" viewBox="0 0 57 65" glyph-orientation-vertical="auto" margin-right="0" display="inline" font-size-adjust="none" margin-bottom="0" overflow="visible" fill="rgb(0, 0, 0)" font-stretch="normal" stroke-dasharray="none" id="svg2.Ebene_1" stroke-miterlimit="4" stop-opacity="1" color-rendering="auto" font-size="12" pointer-events="visiblepainted" mask="none" direction="ltr" baseline-shift="baseline" enable-background="new 0 0 57 65" fill-rule="nonzero" image-rendering="auto" solid-opacity="1" stroke-dashoffset="0" width="57px" marker-end="none" clip="auto" cursor="auto" stroke="none" filter="none" visibility="visible" kerning="auto" stroke-width="1" font-family="&quot;Arial&quot;,&quot;Helvetica&quot;,sans-serif" flood-opacity="1" clip-rule="nonzero" src="none" height="65px" text-align="inherit" line-height="normal" unicode-bidi="normal" stroke-linejoin="miter" stroke-opacity="1" flood-color="rgb(0, 0, 0)" dominant-baseline="auto" marker-start="none" x="0px" marker-mid="none" y="0px">
<g>
	
		<linearGradient gradientTransform="matrix(1 0 0 1 0.1602 -1546.3828)" x1="26.5" x2="27.741" gradientUnits="userSpaceOnUse" y1="1570.3457" y2="1600.1431" id="svg2.SVGID_1_" xml:id="svg2.SVGID_1_">
		<stop offset="0.2711" style="stop-color:#FFAB4F"/>
		<stop offset="1" style="stop-color:#FFD28F"/>
	</linearGradient>
	<path fill="url(#svg2.SVGID_1_)" d="M49.529,51.225c-4.396-4.396-10.951-5.884-12.063-6.109   V37.8H19.278c0,0,0.038,6.903,0,6.868c0,0-6.874,0.997-12.308,6.432C1.378,56.691,0.5,62.77,0.5,62.77   c0,1.938,1.575,3.492,3.523,3.492h48.51c1.947,0,3.521-1.558,3.521-3.492C56.055,62.768,54.211,55.906,49.529,51.225z" stroke-miterlimit="10" stroke="#ED9135"/>
	
		<radialGradient gradientTransform="matrix(1 0 0 1 0.1602 -1546.3828)" gradientUnits="userSpaceOnUse" r="23.4243" cx="27.7427" cy="1572.1094" id="svg2.face_x5F_white_1_" fx="23.1732" fy="1569.6195" xml:id="svg2.face_x5F_white_1_">
		<stop offset="0" style="stop-color:#FFD28F"/>
		<stop offset="1" style="stop-color:#FFAB4F"/>
	</radialGradient>
	<path fill="url(#svg2.face_x5F_white_1_)" id="svg2.face_x5F_white_3_" d="M43.676,23.357   c0.086,10.2-6.738,18.52-15.247,18.586c-8.502,0.068-15.466-8.146-15.552-18.344C12.794,13.4,19.618,5.079,28.123,5.012   C36.627,4.945,43.59,13.158,43.676,23.357z" stroke-miterlimit="10" xml:id="svg2.face_x5F_white_3_" stroke="#ED9135"/>
	
		<linearGradient gradientTransform="matrix(0.275 0 0 -0.2733 -977.2951 -1806.3545)" x1="3646.5117" x2="3670.1414" gradientUnits="userSpaceOnUse" y1="-6639.5884" y2="-6733.0391" id="svg2.face_highlight_1_" xml:id="svg2.face_highlight_1_">
		<stop offset="0" style="stop-color:#FFFFFF;stop-opacity:0.24"/>
		<stop offset="1" style="stop-color:#FFFFFF;stop-opacity:0.16"/>
	</linearGradient>
	<path fill="url(#svg2.face_highlight_1_)" d="M27.958,6.333c-6.035,0.047-10.747,4.493-12.787,10.386   c-0.664,1.919-0.294,4.043,0.98,5.629c2.73,3.398,5.729,6.283,9.461,8.088c3.137,1.518,7.535,2.385,11.893,1.247   c2.274-0.592,3.988-2.459,4.375-4.766c0.183-1.094,0.293-2.289,0.283-3.553C42.083,13.952,36.271,6.268,27.958,6.333z" id="svg2.face_highlight_3_" xml:id="svg2.face_highlight_3_"/>
	<path stroke-linecap="round" fill="#CC9869" stroke-linejoin="round" d="M20.278,13.25   c3.417,4.333,9.333,6.917,9.333,6.917l-1.417-3.5c0,0,7.094,4.691,8.083,4.333c0.968-0.2-1.082-3.807-1.082-3.807   s3.138,1.795,4.854,3.969c1.803,2.28,4.285,3.504,4.285,3.504S47.027,2.719,27.289,2.744C8.278,2.709,12.058,27.678,12.058,27.678   L14.695,17c0,0,0.914,5.757,1.399,4.875C17.861,15.211,18.861,11.5,20.278,13.25z" id="svg2.Hair_Young_Brown_1_" stroke="#99724F" xml:id="svg2.Hair_Young_Brown_1_"/>
	
		<radialGradient gradientTransform="matrix(1 0 0 1 0.1602 -1546.3828)" gradientUnits="userSpaceOnUse" r="32.4004" cx="15.1191" id="svg2.collar_x5F_body_2_" cy="1603.5518" xml:id="svg2.collar_x5F_body_2_">
		<stop offset="0" style="stop-color:#B0E8FF"/>
		<stop offset="1" style="stop-color:#74AEEE"/>
	</radialGradient>
	<path fill="url(#svg2.collar_x5F_body_2_)" d="M0.5,62.768c0,1.938,1.575,3.494,3.523,3.494   h48.51c1.947,0,3.521-1.559,3.521-3.494c0,0-1.844-6.861-6.525-11.543c-4.815-4.813-11.244-6.146-11.244-6.146   c-1.771,1.655-5.61,2.802-10.063,2.802c-4.453,0-8.292-1.146-10.063-2.802c0,0-5.755,0.586-11.189,6.021   C1.378,56.689,0.5,62.768,0.5,62.768z" id="svg2.collar_x5F_body_1_" xml:id="svg2.collar_x5F_body_1_" stroke="#5491CF"/>
	
		<radialGradient gradientTransform="matrix(1 0 0 1 0.1602 -1546.3828)" gradientUnits="userSpaceOnUse" r="9.2831" cx="31.46" id="svg2.collar_x5F_r_2_" cy="1593.6777" xml:id="svg2.collar_x5F_r_2_">
		<stop offset="0" style="stop-color:#80CCFF"/>
		<stop offset="1" style="stop-color:#74AEEE"/>
	</radialGradient>
	<path fill="url(#svg2.collar_x5F_r_2_)" d="M38.159,41.381c0,0-0.574,2.369-3.013,4.441   c-2.108,1.795-5.783,2.072-5.783,2.072l3.974,6.217c0,0,2.957-1.637,5.009-3.848c1.922-2.072,1.37-5.479,1.37-5.479L38.159,41.381z   " id="svg2.collar_x5F_r_1_" xml:id="svg2.collar_x5F_r_1_" stroke="#5491CF"/>
	
		<radialGradient gradientTransform="matrix(1 0 0 1 0.1602 -1546.3828)" gradientUnits="userSpaceOnUse" r="9.2837" cx="19.0977" id="svg2.collar_x5F_l_2_" cy="1593.7188" xml:id="svg2.collar_x5F_l_2_">
		<stop offset="0" style="stop-color:#80CCFF"/>
		<stop offset="1" style="stop-color:#74AEEE"/>
	</radialGradient>
	<path fill="url(#svg2.collar_x5F_l_2_)" d="M18.63,41.422c0,0,0.576,2.369,3.012,4.441   c2.109,1.793,5.785,2.072,5.785,2.072l-3.974,6.217c0,0-2.957-1.637-5.007-3.85c-1.922-2.072-1.37-5.48-1.37-5.48L18.63,41.422z" id="svg2.collar_x5F_l_1_" xml:id="svg2.collar_x5F_l_1_" stroke="#5491CF"/>
	
		<linearGradient gradientTransform="matrix(0.9852 0 0 -0.9852 -18.8086 -1488.5884)" x1="79.9941" x2="15.6017" gradientUnits="userSpaceOnUse" y1="-1567.4565" y2="-1567.4565" id="svg2.body_1_" xml:id="svg2.body_1_">
		<stop offset="0" style="stop-color:#49AD33"/>
		<stop offset="1" style="stop-color:#C2DA92"/>
	</linearGradient>
	<path fill="url(#svg2.body_1_)" d="M0.5,62.768c0,1.938,1.575,3.494,3.523,3.494h48.51   c1.947,0,3.521-1.559,3.521-3.494c0,0-1.844-6.861-6.525-11.543c-4.815-4.813-11.244-6.146-11.244-6.146   c-1.771,1.655-5.61,2.802-10.063,2.802c-4.453,0-8.292-1.146-10.063-2.802c0,0-5.755,0.586-11.189,6.021   C1.378,56.689,0.5,62.768,0.5,62.768z" id="svg2.body_9_" xml:id="svg2.body_9_" stroke="#008D33"/>
	
		<linearGradient gradientTransform="matrix(1 0 0 1 0.1602 -1546.3828)" x1="41.248" x2="15.2274" gradientUnits="userSpaceOnUse" y1="1593.0166" y2="1593.0166" id="svg2.turtleneck_1_" xml:id="svg2.turtleneck_1_">
		<stop offset="0" style="stop-color:#49AD33"/>
		<stop offset="1" style="stop-color:#C2DA92"/>
	</linearGradient>
	<path fill="url(#svg2.turtleneck_1_)" d="M39.715,44.786l-1.557-3.405c0,0-0.574,2.369-3.012,4.441   c-2.109,1.795-6.785,2.072-6.785,2.072s-4.753-0.356-6.722-2.031c-2.436-2.072-3.012-4.441-3.012-4.441l-1.555,3.404   c0,0-0.552,1.404,1.37,3.479c1.025,1.105,5.203,3.611,9.682,3.582c4.479-0.029,9.264-2.594,10.218-3.623   C40.266,46.191,39.715,44.786,39.715,44.786z" id="svg2.turtleneck_6_" xml:id="svg2.turtleneck_6_" stroke="#008D33"/>
	<path fill="#CC9869" d="M36.118,33.275   c-0.614,0.828-2.054,1.397-3.662,1.344c-1.399-0.047-2.694-0.286-3.429-0.787c-0.183-0.125-0.499-0.598-0.604-0.604   c-0.136-0.004-0.458,0.476-0.649,0.604c-1.382,0.932-4.73,1.074-6.257,0.139c-0.427-0.262-0.919-0.615-1.066-1.113   c-0.317-1.076,0.336,0.16,1.715-0.092c1.615-0.295,3.577-4.193,5.887-2.596c0.118,0.082,0.274,0.324,0.325,0.325   c0.099,0.002,0.64-0.503,0.788-0.556c2.393-0.859,3.818,2.568,5.377,2.828C35.346,32.899,36.844,32.295,36.118,33.275z" stroke-width="0.9271" stroke="#99724F" stroke-linecap="round" stroke-linejoin="round"/>
</g>
</svg>
      </g>
    </g>
  </g>
</svg>
